<?xml version="1.0" encoding="utf-8"?>
<!-- Generator: Adobe Illustrator 23.1.1, SVG Export Plug-In . SVG Version: 6.00 Build 0)  -->
<svg version="1.1" id="Слой_1" xmlns="http://www.w3.org/2000/svg" xmlns:xlink="http://www.w3.org/1999/xlink" x="0px" y="0px"
	 viewBox="0 0 371.5 371.5" style="enable-background:new 0 0 371.5 371.5;" xml:space="preserve">
<style type="text/css">
	.st0{fill:#4E4E4E;}
	.st1{fill-rule:evenodd;clip-rule:evenodd;fill:#4E4E4E;}
</style>
<g>
	<g>
		<path class="st0" d="M106.7,230c-6.5,0-11.8-5.3-11.8-11.8s5.3-11.8,11.8-11.8h27.7l37.7-65.5l-10.6-18.3
			c-2.9-5.3-1.2-12.4,4.1-15.9c1.8-1.2,3.5-1.8,5.9-1.8c4.1,0,8.3,2.4,10,5.9l3.5,6.5l3.5-6.5c1.8-3.5,5.9-5.9,10-5.9
			c1.8,0,4.1,0.6,5.9,1.8c2.9,1.8,4.7,4.1,5.3,7.1c0.6,2.9,0.6,5.9-1.2,8.8l-48.4,83.7h31.8l13.6,23h-99.1V230z"/>
		<path class="st0" d="M251.2,266c-1.2,0-1.8,0-2.9-0.6c-2.9-0.6-5.3-2.9-7.1-5.3l-46.6-80.8l13.6-23l29.5,50.7h27.7
			c6.5,0,11.8,5.3,11.8,11.8s-5.3,11.8-11.8,11.8h-14.7l10.6,18.3c1.8,2.9,1.8,5.9,1.2,8.8c-0.6,2.9-2.9,5.3-5.3,7.1
			C255.3,265.4,253,266,251.2,266z"/>
		<path class="st0" d="M120.9,266c-1.8,0-4.1-0.6-5.9-1.8c-5.3-2.9-7.7-10-4.1-15.9l2.4-3.5h26.5l-8.8,15.3
			C128.6,263.6,125,266,120.9,266L120.9,266z"/>
	</g>
	<path class="st1" d="M185.8,0C83.1,0,0,83.1,0,185.8s83.1,185.8,185.8,185.8s185.8-83.1,185.8-185.8S288.4,0,185.8,0z M185.8,352.6
		c-92,0-166.9-74.9-166.9-166.9c0-92,74.9-166.9,166.9-166.9s166.9,74.9,166.9,166.9C352.6,277.8,277.8,352.6,185.8,352.6z"/>
</g>
</svg>
