<svg xmlns="http://www.w3.org/2000/svg" viewBox="0 0 371.51 371.51">
    <defs>
        <style>.cls-1{fill:#4e4e4e;fill-rule:evenodd;}</style>
    </defs>
    <g id="Слой_2" data-name="Слой 2">
        <g id="Слой_1-2" data-name="Слой 1">
            <path class="cls-1"
                  d="M185.76,0C83.33,0,0,83.33,0,185.76S83.33,371.51,185.76,371.51s185.76-83.33,185.76-185.76S288.18,0,185.76,0Zm0,352.7c-92.05,0-166.94-74.89-166.94-166.94S93.7,18.82,185.76,18.82,352.7,93.71,352.7,185.76,277.81,352.7,185.76,352.7Z"/>
            <path class="cls-1"
                  d="M164.27,142.14v16.45H147.63v27.19h16.65v82H191.2v-82h27l4.29-27.19H191.2V145c0-7.12,2.32-13.87,12.48-13.87h20.38V104H195.17C170.89,104,164.27,120,164.27,142.14Z"/>
        </g>
    </g>
</svg>