<svg xmlns="http://www.w3.org/2000/svg" viewBox="0 0 62.99 62.99">
    <defs>
        <style>.cls-1,.cls-2{fill:#4e4e4e;}.cls-2{fill-rule:evenodd;}</style>
    </defs>
    <g id="Слой_2" data-name="Слой 2">
        <g id="Слой_1-2" data-name="Слой 1">
            <path class="cls-1"
                  d="M37.71,17.61H25.27a7.67,7.67,0,0,0-7.66,7.66V37.71a7.67,7.67,0,0,0,7.66,7.66H37.71a7.67,7.67,0,0,0,7.66-7.66V25.27a7.67,7.67,0,0,0-7.66-7.66Zm5.2,20.11a5.21,5.21,0,0,1-5.2,5.2H25.27a5.21,5.21,0,0,1-5.2-5.2V25.27a5.21,5.21,0,0,1,5.2-5.2H37.71a5.21,5.21,0,0,1,5.2,5.2Zm0,0"/>
            <path class="cls-1"
                  d="M31.49,24.34a7.16,7.16,0,1,0,7.16,7.15,7.16,7.16,0,0,0-7.16-7.15Zm0,11.85a4.69,4.69,0,1,1,4.69-4.69,4.7,4.7,0,0,1-4.69,4.69Zm0,0"/>
            <path class="cls-1" d="M38.95,22.25a1.81,1.81,0,1,0,1.28.53,1.81,1.81,0,0,0-1.28-.53Zm0,0"/>
            <path class="cls-2"
                  d="M31.49,0A31.49,31.49,0,1,0,63,31.49,31.53,31.53,0,0,0,31.49,0Zm0,59.8a28.3,28.3,0,1,1,28.3-28.3A28.34,28.34,0,0,1,31.49,59.8Z"/>
        </g>
    </g>
</svg>