<svg xmlns="http://www.w3.org/2000/svg" viewBox="0 0 497.29 84.14">
    <defs>
        <style>.cls-1{fill:#fff;}</style>
    </defs>
    <g id="Слой_2" data-name="Слой 2">
        <g id="Слой_1-2" data-name="Слой 1">
            <path class="cls-1"
                  d="M444.93,82.11h7.46v-38h13.92l22.51,38h8.47L474,43.65c8.84-1.13,20.48-5.31,20.48-20.59,0-21-22.16-21-28.5-21h-21Zm7.46-73.28h15.84c15.71,0,18.76,8.71,18.76,14.25s-3.05,14.25-18.76,14.25H452.39ZM358.14,82.11h50.78V75.32H365.6V44.1h38.91V37.32H365.6V8.82h41.5V2h-49ZM280.83,8.82h16.51c8.6,0,17.42,4.08,17.42,14.36,0,10.52-8.47,14.14-17,14.14h-17Zm-7.47,73.28h7.47v-38h17.3c12.55,0,24.1-6.43,24.1-20.92C322.23,6.45,307.76,2,296.44,2H273.37ZM185,72c6.22,8.7,15.5,12.1,26,12.1,13,0,24.89-8,24.89-22.5,0-30.09-41.28-15.61-41.28-39.71,0-10.17,8.37-15.15,18-15.15a18,18,0,0,1,15.6,7.92l6.44-4.64C229.2,2.94,221.51,0,212.81,0c-13.46,0-25.67,7.69-25.67,21.94,0,30.42,41.27,17.31,41.27,39.71,0,9.6-7.92,15.71-18,15.71-7.92,0-14.37-3.39-18.34-10.06ZM101,82.11h50.78V75.32H108.51V44.1h38.91V37.32H108.51V8.82H150V2H101Zm-71.17,0h7.46L67.75,2H59.83l-26,70.23L8,2H0Z"/>
        </g>
    </g>
</svg>