<svg xmlns="http://www.w3.org/2000/svg" xmlns:xlink="http://www.w3.org/1999/xlink" viewBox="0 0 340.28 439.37">
    <defs>
        <style>.cls-1{fill:none;}.cls-2{clip-path:url(#clip-path);}.cls-3{fill:#1c1c1b;}</style>
        <clipPath id="clip-path" transform="translate(0 0)">
            <rect class="cls-1" width="340.28" height="439.37"/>
        </clipPath>
    </defs>
    <g id="Слой_2" data-name="Слой 2">
        <g id="Слой_1-2" data-name="Слой 1">
            <g class="cls-2">
                <path class="cls-3"
                      d="M276.64,438.11h4.63V414.54h8.63l14,23.57h5.26l-14.45-23.85c5.48-.7,12.7-3.3,12.7-12.77,0-13-13.75-13-17.68-13h-13Zm4.63-45.46h9.82c9.75,0,11.64,5.4,11.64,8.84s-1.89,8.84-11.64,8.84h-9.82Zm-58.47,45.46h31.5V433.9H227.43V414.54h24.13v-4.21H227.43V392.65h25.74v-4.21H222.81Zm-48-45.46h10.24c5.34,0,10.81,2.53,10.81,8.9s-5.26,8.77-10.52,8.77H174.85Zm-4.63,45.46h4.63V414.54h10.73c7.79,0,15-4,15-13,0-10.38-9-13.12-16-13.12H170.22Zm-54.83-6.24c3.85,5.4,9.61,7.51,16.13,7.51,8.07,0,15.44-5,15.44-14,0-18.66-25.6-9.68-25.6-24.63,0-6.31,5.19-9.4,11.15-9.4a11.13,11.13,0,0,1,9.68,4.92l4-2.88c-3.36-4.42-8.13-6.24-13.53-6.24-8.35,0-15.93,4.77-15.93,13.61,0,18.87,25.6,10.74,25.6,24.63,0,6-4.92,9.75-11.15,9.75a12.57,12.57,0,0,1-11.37-6.24Zm-52.07,6.24h31.5V433.9H68V414.54H92.09v-4.21H68V392.65H93.69v-4.21H63.32Zm-44.15,0h4.63l18.87-49.67H37.76L21.62,432l-16-43.57h-5Z"
                      transform="translate(0 0)"/>
                <path class="cls-3"
                      d="M113.65,335c-3,0-4.62-3.46-4.94-4.14L.11,58.58A1.56,1.56,0,1,1,3,57.43L111.57,329.61c.48,1,1,2.26,1.89,2.26s1.19-.49,2-2.34a1.56,1.56,0,1,1,2.83,1.32c-1.28,2.75-2.86,4.14-4.69,4.14"
                      transform="translate(0 0)"/>
                <path class="cls-3"
                      d="M127.07,335c-3,0-4.62-3.46-4.94-4.14L13.53,58.58a1.56,1.56,0,1,1,2.89-1.15L125,329.61c.48,1,1,2.26,1.89,2.26s1.19-.49,2-2.34a1.56,1.56,0,0,1,2.83,1.32c-1.28,2.75-2.86,4.14-4.69,4.14"
                      transform="translate(0 0)"/>
                <path class="cls-3"
                      d="M140.44,335c-3,0-4.61-3.46-4.94-4.14L26.9,58.58a1.56,1.56,0,1,1,2.89-1.15L138.36,329.61c.48,1,1,2.26,1.89,2.26s1.19-.49,2-2.34a1.56,1.56,0,1,1,2.83,1.32c-1.28,2.75-2.85,4.14-4.69,4.14"
                      transform="translate(0 0)"/>
                <path class="cls-3"
                      d="M153.8,335c-3,0-4.62-3.46-4.94-4.14L40.26,58.58a1.56,1.56,0,1,1,2.89-1.15L151.73,329.61c.48,1,1,2.26,1.89,2.26s1.19-.49,2-2.34a1.56,1.56,0,1,1,2.83,1.32c-1.28,2.75-2.85,4.14-4.69,4.14"
                      transform="translate(0 0)"/>
                <path class="cls-3"
                      d="M167.22,335c-3,0-4.62-3.46-4.94-4.14L53.67,58.58a1.56,1.56,0,1,1,2.89-1.15L165.14,329.61c.48,1,1,2.26,1.89,2.26s1.19-.49,2-2.34a1.56,1.56,0,1,1,2.83,1.32c-1.28,2.75-2.85,4.14-4.69,4.14"
                      transform="translate(0 0)"/>
                <path class="cls-3"
                      d="M180.64,335c-3,0-4.61-3.46-4.94-4.14L67.1,58.58A1.56,1.56,0,1,1,70,57.43L178.56,329.61c.48,1,1,2.26,1.89,2.26s1.19-.49,2-2.34a1.56,1.56,0,1,1,2.83,1.32c-1.28,2.75-2.85,4.14-4.69,4.14"
                      transform="translate(0 0)"/>
                <path class="cls-3"
                      d="M194.05,335c-3,0-4.61-3.46-4.94-4.14L80.51,58.58a1.56,1.56,0,1,1,2.89-1.15L192,329.61c.48,1,1,2.26,1.89,2.26s1.19-.49,2-2.34a1.56,1.56,0,1,1,2.83,1.32c-1.28,2.75-2.85,4.14-4.69,4.14"
                      transform="translate(0 0)"/>
                <path class="cls-3"
                      d="M258.93.14a1.55,1.55,0,0,0-2,.81C239.64,41.13,116.38,327.56,115.51,329.55a1.56,1.56,0,0,0,2.83,1.29C118.61,330.26,243.11,41,259.75,2.18a1.55,1.55,0,0,0-.82-2"
                      transform="translate(0 0)"/>
                <path class="cls-3"
                      d="M130.34,331.74a1.5,1.5,0,0,1-.66-.15,1.56,1.56,0,0,1-.76-2.05C129.85,327.43,253,41.2,270.3,1a1.56,1.56,0,0,1,2.86,1.23C256.5,41,132,330.28,131.75,330.84a1.56,1.56,0,0,1-1.41.9"
                      transform="translate(0 0)"/>
                <path class="cls-3"
                      d="M143.71,331.74a1.56,1.56,0,0,1-1.42-2.19c.87-2,124.09-288.32,141.38-328.59a1.56,1.56,0,1,1,2.86,1.23C269.85,41,145.39,330.25,145.13,330.84a1.57,1.57,0,0,1-1.41.9"
                      transform="translate(0 0)"/>
                <path class="cls-3"
                      d="M157.08,331.74a1.52,1.52,0,0,1-.66-.15,1.56,1.56,0,0,1-.76-2c.85-1.91,124-288.13,141.39-328.6a1.56,1.56,0,1,1,2.86,1.23c-18.43,43-141.13,328-141.41,328.67a1.56,1.56,0,0,1-1.41.9"
                      transform="translate(0 0)"/>
                <path class="cls-3"
                      d="M183.91,331.74a1.56,1.56,0,0,1-1.42-2.19c.88-2,124.05-288.22,141.38-328.6a1.56,1.56,0,0,1,2.87,1.23C310,41.13,185.59,330.26,185.32,330.84a1.56,1.56,0,0,1-1.41.9"
                      transform="translate(0 0)"/>
                <path class="cls-3"
                      d="M170.43,331.84a1.51,1.51,0,0,1-.66-.15,1.55,1.55,0,0,1-.76-2c1-2.36,124.12-288.3,141.45-328.69a1.56,1.56,0,0,1,2.87,1.23c-16.73,39-141.23,328.19-141.49,328.76a1.56,1.56,0,0,1-1.41.9"
                      transform="translate(0 0)"/>
                <path class="cls-3"
                      d="M197.33,331.74a1.56,1.56,0,0,1-1.42-2.19c.88-2,124.05-288.22,141.38-328.6a1.56,1.56,0,0,1,2.87,1.23C323.42,41.13,199,330.26,198.74,330.84a1.56,1.56,0,0,1-1.41.9"
                      transform="translate(0 0)"/>
            </g>
        </g>
    </g>
</svg>