<svg xmlns="http://www.w3.org/2000/svg" viewBox="0 0 112.87 112.87">
    <defs>
        <style>.cls-1{fill:#4e4e4e;}</style>
    </defs>
    <g id="Слой_2" data-name="Слой 2">
        <g id="OBJECTS">
            <path class="cls-1"
                  d="M56.43,5A51.43,51.43,0,1,1,5,56.43,51.49,51.49,0,0,1,56.43,5m0-5a56.43,56.43,0,1,0,56.43,56.43A56.43,56.43,0,0,0,56.43,0Z"/>
            <path class="cls-1"
                  d="M80.77,31.66a1.84,1.84,0,0,0-.66.12L23.31,53.36a1.83,1.83,0,0,0,.06,3.44l13.17,4.45,7.94,15.89h0l0,0h0a.86.86,0,0,0,.76.48.84.84,0,0,0,.55-.2l7.44-6.31L45,64.87l.65,8.28-6-12.36L71.38,41.72,45,64.87,65.52,80.48a3.7,3.7,0,0,0,2.25.76,3.74,3.74,0,0,0,3.64-2.84L82.53,33.94A1.83,1.83,0,0,0,80.77,31.66Z"/>
        </g>
    </g>
</svg>