<svg xmlns="http://www.w3.org/2000/svg" xmlns:xlink="http://www.w3.org/1999/xlink" width="272.151" height="75.988" viewBox="0 0 272.151 75.988">
  <defs>
    <clipPath id="clip-path">
      <rect width="272.151" height="75.988" fill="none"/>
    </clipPath>
  </defs>
  <g id="Znak_Fairmont_and_Vesper" clip-path="url(#clip-path)">
    <g id="Znak_Fairmont_and_Vesper-2" data-name="Znak_Fairmont_and_Vesper">
      <g id="Group_49" data-name="Group 49" transform="translate(168.817 18.497)">
        <path id="Path_159" data-name="Path 159" d="M301.866,49.3h1.541l6.337-16.556h-1.656L302.722,47.3l-5.367-14.558H295.7Zm14.786,0h10.562V47.872h-9.02V41.477H326.3V40.05h-8.107V34.17h8.621V32.743H316.652V49.3Zm17.47-2.055a6.357,6.357,0,0,0,5.424,2.512c2.683,0,5.2-1.656,5.2-4.624,0-6.223-8.564-3.2-8.564-8.221,0-2.112,1.713-3.14,3.711-3.14a3.785,3.785,0,0,1,3.254,1.656l1.313-.971a5.384,5.384,0,0,0-4.51-2.055c-2.8,0-5.309,1.6-5.309,4.51,0,6.28,8.564,3.6,8.564,8.221,0,2-1.656,3.254-3.711,3.254a4.262,4.262,0,0,1-3.825-2.055ZM352.505,49.3h1.541V41.477h3.6c2.626,0,5.024-1.313,5.024-4.339,0-3.483-3.026-4.4-5.367-4.4h-4.8Zm1.541-15.129h3.425c1.77,0,3.6.856,3.6,2.969,0,2.169-1.77,2.912-3.54,2.912h-3.54V34.17ZM370.089,49.3h10.562V47.872h-9.02V41.477h8.107V40.05h-8.107V34.17h8.621V32.743H370.089ZM389.671,34.17h3.311c3.254,0,3.882,1.77,3.882,2.969,0,1.142-.628,2.969-3.882,2.969h-3.311ZM388.13,49.3h1.541V41.477h2.912l4.681,7.879h1.77l-4.853-7.936c1.827-.228,4.282-1.085,4.282-4.282,0-4.339-4.624-4.339-5.937-4.339h-4.4V49.3Z" transform="translate(-295.7 -32.4)" fill="#474747"/>
      </g>
      <g id="Group_50" data-name="Group 50" transform="translate(147.294 3.54)">
        <rect id="Rectangle_133" data-name="Rectangle 133" width="1.427" height="47.214" fill="#474747"/>
      </g>
      <g id="Group_67" data-name="Group 67" transform="translate(54.236 66.339)">
        <g id="Group_51" data-name="Group 51" transform="translate(0 0.171)">
          <path id="Path_160" data-name="Path 160" d="M101.623,125.806h-1.2l-1.713-4H96.028v4H95V116.5h3.654a3.026,3.026,0,0,1,2.227.8,2.724,2.724,0,0,1,.742,1.77,2.577,2.577,0,0,1-.4,1.427,2.128,2.128,0,0,1-1.313.971Zm-5.538-4.967h2.4a1.816,1.816,0,0,0,1.427-.514,1.635,1.635,0,0,0,.457-1.256,1.361,1.361,0,0,0-.514-1.142,1.845,1.845,0,0,0-1.256-.4H96.028v3.311Z" transform="translate(-95 -116.5)" fill="#474747"/>
        </g>
        <g id="Group_52" data-name="Group 52" transform="translate(10.276 0.171)">
          <path id="Path_161" data-name="Path 161" d="M119.052,124.778v1.028H113V116.5h5.88v1.028h-4.739V120.5h3.711v.971h-3.711v3.368h4.91Z" transform="translate(-113 -116.5)" fill="#474747"/>
        </g>
        <g id="Group_53" data-name="Group 53" transform="translate(18.726 0)">
          <path id="Path_162" data-name="Path 162" d="M127.8,123.222l1.028-.228a3.02,3.02,0,0,0,4.4,1.427,1.47,1.47,0,0,0,.571-1.256,1.252,1.252,0,0,0-.4-.971,3.174,3.174,0,0,0-.971-.514l-1.884-.457a5.84,5.84,0,0,1-1.2-.457,2.66,2.66,0,0,1-.8-.8,2.3,2.3,0,0,1-.343-1.256,2.172,2.172,0,0,1,.856-1.827,3.455,3.455,0,0,1,2.227-.685,3.131,3.131,0,0,1,3.311,2.284l-1.028.285a1.818,1.818,0,0,0-.856-1.256,2.577,2.577,0,0,0-1.427-.4,2.276,2.276,0,0,0-1.37.4,1.268,1.268,0,0,0-.571,1.142c0,.685.514,1.142,1.484,1.37l1.713.4q2.4.6,2.4,2.569a2.462,2.462,0,0,1-.913,2,3.68,3.68,0,0,1-2.512.8A3.577,3.577,0,0,1,127.8,123.222Z" transform="translate(-127.8 -116.2)" fill="#474747"/>
        </g>
        <g id="Group_54" data-name="Group 54" transform="translate(84.437 0)">
          <path id="Path_163" data-name="Path 163" d="M242.9,123.222l1.028-.228a3.02,3.02,0,0,0,4.4,1.427,1.47,1.47,0,0,0,.571-1.256,1.252,1.252,0,0,0-.4-.971,3.174,3.174,0,0,0-.971-.514l-1.884-.457a5.84,5.84,0,0,1-1.2-.457,2.66,2.66,0,0,1-.8-.8,2.3,2.3,0,0,1-.343-1.256,2.172,2.172,0,0,1,.856-1.827,3.455,3.455,0,0,1,2.227-.685,3.131,3.131,0,0,1,3.311,2.284l-1.028.285a1.818,1.818,0,0,0-.856-1.256,2.577,2.577,0,0,0-1.427-.4,2.276,2.276,0,0,0-1.37.4,1.268,1.268,0,0,0-.571,1.142c0,.685.514,1.142,1.484,1.37l1.713.4q2.4.6,2.4,2.569a2.462,2.462,0,0,1-.913,2,3.68,3.68,0,0,1-2.512.8A3.577,3.577,0,0,1,242.9,123.222Z" transform="translate(-242.9 -116.2)" fill="#474747"/>
        </g>
        <g id="Group_55" data-name="Group 55" transform="translate(29.459 0.171)">
          <path id="Path_164" data-name="Path 164" d="M147.742,125.806H146.6V116.5h1.142Z" transform="translate(-146.6 -116.5)" fill="#474747"/>
        </g>
        <g id="Group_56" data-name="Group 56" transform="translate(34.711 0.171)">
          <path id="Path_165" data-name="Path 165" d="M155.8,125.806V116.5h3.14a3.884,3.884,0,0,1,3.083,1.313,4.978,4.978,0,0,1,1.085,3.254,5.029,5.029,0,0,1-1.085,3.311,3.226,3.226,0,0,1-2.683,1.37H155.8Zm1.2-1.028h1.884a2.722,2.722,0,0,0,2.284-1.028,4.464,4.464,0,0,0,.8-2.74,4.151,4.151,0,0,0-.742-2.455,2.555,2.555,0,0,0-2.284-1.085h-1.884v7.308Z" transform="translate(-155.8 -116.5)" fill="#474747"/>
        </g>
        <g id="Group_57" data-name="Group 57" transform="translate(45.558 0.171)">
          <path id="Path_166" data-name="Path 166" d="M180.795,124.778v1.028H174.8V116.5h5.88v1.028h-4.739V120.5h3.711v.971h-3.711v3.368h4.853Z" transform="translate(-174.8 -116.5)" fill="#474747"/>
        </g>
        <g id="Group_58" data-name="Group 58" transform="translate(54.978 0.171)">
          <path id="Path_167" data-name="Path 167" d="M198.151,125.806h-1.142l-4.8-8.107v8.107H191.3V116.5h1.427l4.51,7.536V116.5h.913Z" transform="translate(-191.3 -116.5)" fill="#474747"/>
        </g>
        <g id="Group_59" data-name="Group 59" transform="translate(65.369)">
          <path id="Path_168" data-name="Path 168" d="M215.609,122.537l1.085.228q-.771,3.083-3.425,3.083a3.04,3.04,0,0,1-2.74-1.427,5.842,5.842,0,0,1-1.028-3.483,5.325,5.325,0,0,1,1.028-3.425,3.465,3.465,0,0,1,2.8-1.313c1.713,0,2.855.971,3.368,2.969l-1.085.228c-.4-1.484-1.142-2.227-2.284-2.227a2.085,2.085,0,0,0-1.884,1.028,5.228,5.228,0,0,0-.685,2.912,4.87,4.87,0,0,0,.685,2.74,2.124,2.124,0,0,0,1.827,1.028C214.467,124.878,215.266,124.079,215.609,122.537Z" transform="translate(-209.5 -116.2)" fill="#474747"/>
        </g>
        <g id="Group_60" data-name="Group 60" transform="translate(75.816 0.171)">
          <path id="Path_169" data-name="Path 169" d="M233.795,124.778v1.028H227.8V116.5h5.88v1.028h-4.739V120.5h3.711v.971h-3.711v3.368h4.853Z" transform="translate(-227.8 -116.5)" fill="#474747"/>
        </g>
        <g id="Group_61" data-name="Group 61" transform="translate(100.365 0.171)">
          <path id="Path_170" data-name="Path 170" d="M279.763,125.806h-1.142V117.7l-3.026,8.107h-.8l-3.026-8.107v8.107H270.8V116.5h1.713l2.8,7.422,2.74-7.422h1.713Z" transform="translate(-270.8 -116.5)" fill="#474747"/>
        </g>
        <g id="Group_62" data-name="Group 62" transform="translate(112.868 0)">
          <path id="Path_171" data-name="Path 171" d="M296.525,125.848a3.287,3.287,0,0,1-2.8-1.37,5.549,5.549,0,0,1-1.028-3.425,5.607,5.607,0,0,1,1.028-3.483,3.483,3.483,0,0,1,5.538,0A5.548,5.548,0,0,1,300.293,121a5.787,5.787,0,0,1-1.028,3.425A3.164,3.164,0,0,1,296.525,125.848Zm0-.971a2.087,2.087,0,0,0,1.884-1.085,5.42,5.42,0,0,0,.685-2.855,4.944,4.944,0,0,0-.685-2.8,2.149,2.149,0,0,0-1.884-1.028,2.087,2.087,0,0,0-1.884,1.085,5.282,5.282,0,0,0-.685,2.855,5.208,5.208,0,0,0,.685,2.8A2.149,2.149,0,0,0,296.525,124.878Z" transform="translate(-292.7 -116.2)" fill="#474747"/>
        </g>
        <g id="Group_63" data-name="Group 63" transform="translate(123.03 0)">
          <path id="Path_172" data-name="Path 172" d="M310.5,123.222l1.028-.228a3.02,3.02,0,0,0,4.4,1.427,1.47,1.47,0,0,0,.571-1.256,1.252,1.252,0,0,0-.4-.971,3.174,3.174,0,0,0-.971-.514l-1.884-.457a5.84,5.84,0,0,1-1.2-.457,2.66,2.66,0,0,1-.8-.8,2.3,2.3,0,0,1-.343-1.256,2.172,2.172,0,0,1,.856-1.827,3.455,3.455,0,0,1,2.227-.685,3.131,3.131,0,0,1,3.311,2.284l-1.028.285a1.818,1.818,0,0,0-.856-1.256,2.577,2.577,0,0,0-1.427-.4,2.276,2.276,0,0,0-1.37.4,1.268,1.268,0,0,0-.571,1.142c0,.685.514,1.142,1.484,1.37l1.713.4q2.4.6,2.4,2.569a2.462,2.462,0,0,1-.913,2,3.68,3.68,0,0,1-2.512.8A3.577,3.577,0,0,1,310.5,123.222Z" transform="translate(-310.5 -116.2)" fill="#474747"/>
        </g>
        <g id="Group_64" data-name="Group 64" transform="translate(133.25)">
          <path id="Path_173" data-name="Path 173" d="M334.509,122.537l1.085.228q-.771,3.083-3.425,3.083a3.04,3.04,0,0,1-2.74-1.427,5.842,5.842,0,0,1-1.028-3.483,5.325,5.325,0,0,1,1.028-3.425,3.466,3.466,0,0,1,2.8-1.313c1.713,0,2.855.971,3.368,2.969l-1.085.228c-.4-1.484-1.142-2.227-2.284-2.227a2.085,2.085,0,0,0-1.884,1.028,5.228,5.228,0,0,0-.685,2.912,4.87,4.87,0,0,0,.685,2.74,2.124,2.124,0,0,0,1.827,1.028C333.31,124.878,334.109,124.079,334.509,122.537Z" transform="translate(-328.4 -116.2)" fill="#474747"/>
        </g>
        <g id="Group_65" data-name="Group 65" transform="translate(143.012 0)">
          <path id="Path_174" data-name="Path 174" d="M349.325,125.848a3.287,3.287,0,0,1-2.8-1.37,5.548,5.548,0,0,1-1.028-3.425,5.607,5.607,0,0,1,1.028-3.483,3.483,3.483,0,0,1,5.538,0A5.549,5.549,0,0,1,353.093,121a5.787,5.787,0,0,1-1.028,3.425A3.1,3.1,0,0,1,349.325,125.848Zm.057-.971a2.087,2.087,0,0,0,1.884-1.085,5.42,5.42,0,0,0,.685-2.855,4.944,4.944,0,0,0-.685-2.8,2.149,2.149,0,0,0-1.884-1.028A2.087,2.087,0,0,0,347.5,118.2a5.282,5.282,0,0,0-.685,2.855,5.208,5.208,0,0,0,.685,2.8A2.149,2.149,0,0,0,349.382,124.878Z" transform="translate(-345.5 -116.2)" fill="#474747"/>
        </g>
        <g id="Group_66" data-name="Group 66" transform="translate(152.889 0.171)">
          <path id="Path_175" data-name="Path 175" d="M373.59,116.5l-2.227,9.306h-1.142l-2-7.193-1.884,7.193h-1.2L362.8,116.5H364l1.884,7.536,1.941-7.536h.971l2.112,7.536,1.713-7.536Z" transform="translate(-362.8 -116.5)" fill="#474747"/>
        </g>
      </g>
      <path id="Path_176" data-name="Path 176" d="M26.711,43.989c5.024-2.169,12.617-14.158,14.1-17.47-.913,0-4.967.114-4.967,3.939-.685,0-1.313-.8-1.313-1.713,0-1.541,1.541-3.083,6.794-3.083,2.227-3.6,5.652-8.392,7.993-9.991.971-.685.971-.514.4.171-.742,1.028-1.827,2.569-2.969,4.51-1.884,3.083-3.882,7.251-6.28,11.418a40.764,40.764,0,0,1-7.707,9.192A18.052,18.052,0,0,1,26.2,44.617c-.628.228-.571-.285.514-.628" transform="translate(-11.068 -6.538)" fill="#474747"/>
      <path id="Path_177" data-name="Path 177" d="M53.094,8.164c-3.026,0-6.052-1.713-7.879-2.569a11.716,11.716,0,0,1,7.308-2.969c6.28,0,6.565,5.538.571,5.538M52.695,2a13.339,13.339,0,0,0-8.449,3.14C41.162,3.825,35.054,0,28.431,0,20.5,0,15.472,5.024,15.472,10.391c0,4.4,3.768,7.365,7.993,7.365,6.223,0,7.136-4.453,7.136-5.024,0-.285-.114-.913-.4-1.085-.171-.114-.343-.057-.343.057,0,1.713-3.254,5.138-7.193,5.2C13.473,16.956,17.241.742,27.346.742c5.538,0,11.418,3.711,15.643,5.538-2.683,2.912-5.538,6.851-9.705,15.129C27.575,32.77,20.1,39.735,11.818,39.735c-4.567,0-9.249-2.969-9.249-10.162,0-12.217,16.214-15.586,16.214-3.026,0,5.138-3.54,7.821-6.508,7.879-3.311,0-4.053-2.055-4.053-4.053,0-4.111,2-4.91,1.028-4.91-3.654,0-4.51,9.648,3.483,9.648,5.081,0,8.221-4.51,8.221-8.906.057-4.168-2.683-8.221-8.963-8.221C4.111,17.984,0,23.693,0,29.4,0,35,4,40.477,12.332,40.477c6.68,0,11.019-2.855,14.729-6.337,4.111-3.825,6.623-8.849,8.792-13.759a9.673,9.673,0,0,0,2.8.171c-.4.628-1.484,2.8-.913,2.683.4-.057.856-1.37,2.227-2.855A6.88,6.88,0,0,1,42.247,18.9c1.713-.742,1.2-2,.285-2-1.77,0-2.569,2.8-4.567,2.8a7.32,7.32,0,0,1-1.713-.228c1.313-3.254,4.624-9.934,7.65-12.617,1.313.571,5.652,2.683,8.792,2.683,7.479,0,8.449-7.536,0-7.536" transform="translate(0)" fill="#474747"/>
      <path id="Path_178" data-name="Path 178" d="M83.616,33.381a1.484,1.484,0,1,0-1.484,1.484,1.474,1.474,0,0,0,1.484-1.484m36.995,9.763c-1.713,2.512-3.882,4.168-4.8,3.54s-.114-3.254,1.541-5.766c1.713-2.512,3.825-4.225,4.739-3.6s.171,3.311-1.484,5.823M62.95,46.626c-3.254,0,2.683-9.135,5.424-9.135,3.425,0-2.4,9.135-5.424,9.135M156.921,32.7h-6.565l2.4-3.6c.114-.228.228-.4-.171-.4-1.941,0-4.339,4-4.339,4l-26.2.057,1.2,1.2s21.809-.457,24.435-.514c-.856,1.313-2,2.912-2.912,4.225-2.626,3.711-4.853,6.565-7.251,8.164-1.884,1.256-2.626.8-1.77-.971.913-1.77,3.2-4.339,3.2-6.28,0-.856-.285-1.941-1.77-1.941-2.341,0-4.739,2.512-5.081,2.855l1.884-2.8h-2.74a7.435,7.435,0,0,1-.571.856c-1.256,1.827-5.2,4.853-6.508,1.085a2.739,2.739,0,0,0-2.569-2.284c-2.512,0-4.4,1.37-6.052,3.483-.114.171-4.624,6.737-7.136,6.737-1.028,0-.171-1.256.343-2.055,1.77-2.855,3.026-4.567,3.026-6.052,0-1.142-.571-1.77-2-1.77-2.341,0-4.339,2.227-4.681,2.683h0s1.2-2.683-1.541-2.683c-1.085,0-2.855.571-4.967,2.683h0L100.4,36.75H97.6l-1.085,1.656a4.026,4.026,0,0,1-2.683,1.484c1.2-.8,1.427-3.368-.971-3.368-1.142,0-3.254,1.142-5.252,3.083v-.057l1.941-2.855H86.871s-.571.856-1.427,2.169c-2.227,3.425-6.565,7.764-8.507,7.764-.913,0-1.085-1.37.343-3.311,1.77-2.74,4.339-6.623,4.339-6.623h-2.74s-1.142,1.713-2.512,3.711c-1.827,2.74-4.053,6.223-6.337,6.223-1.37,0-.742-2.112.285-3.654,1.427-2.169,4.168-6.28,4.168-6.28h-2.74s-.913,1.313-1.313,2c0-1.427-.856-2.112-2.512-2.112-6.394,0-10.5,10.733-4.967,10.733,2.455,0,4.453-2.683,4.8-3.254.057,0,.057-.057.057,0-.171,1.427.571,3.2,2.341,3.2,2.341,0,4.8-3.54,4.8-3.54-.285,1.6.228,3.54,2,3.54,2.055,0,5.481-3.825,5.652-4h0c-1.427,2.112-2.626,3.882-2.626,3.882h2.683s.571-.856,1.427-2.169c3.254-4.853,6.623-8.05,9.02-8.107h0a2.072,2.072,0,0,0-1.484,1.884,1.363,1.363,0,0,0,1.541,1.484,7.713,7.713,0,0,0,2.455-.571L90.639,47.14h2.74s1.884-2.855,2.8-4.225c2.455-3.254,5.367-5.88,7.079-5.88,1.085,0,.114,1.37-.285,2-.457.685-5.367,8.107-5.367,8.107h2.74c1.484-2.169,1.427-2.169,2.112-3.2,1.656-2.455,2.4-3.825,4.453-5.538a4.7,4.7,0,0,1,2.683-1.256c.343,0,.457.343.457.571,0,1.541-4.053,5.024-4.053,7.308a2.1,2.1,0,0,0,2.112,2.227c2,0,4.053-1.884,6.109-4.567-.685,2.112,0,4.853,2.683,4.853,3.2,0,7.136-4.624,7.365-7.479,1.256,1.484,3.768.685,4.967-.343-.057.114-4.967,7.479-4.967,7.479h2.74s1.77-2.626,3.6-5.081a16.047,16.047,0,0,1,4.339-4.168,4.677,4.677,0,0,1,1.713-.8c2.455,0-3.654,4.967-3.654,8.164a2.016,2.016,0,0,0,2.227,2c2.74,0,5.424-3.54,6.166-4.282h0c-2.227,3.14-4.967,7.536.285,7.536a3.093,3.093,0,0,0,2-.628c.8-.8-.285-.571-.685-.571-2.227,0-2.341-1.427-1.028-3.711.8-1.37,3.2-5.252,3.483-5.709,2.169-3.254,4.567-6.737,4.567-6.737l7.079-.228V32.7Z" transform="translate(-25.898 -12.315)" fill="#474747"/>
    </g>
  </g>
</svg>
