<svg xmlns="http://www.w3.org/2000/svg" xmlns:xlink="http://www.w3.org/1999/xlink" viewBox="0 0 112.87 112.87">
    <defs>
        <style>.cls-1{fill:none;}.cls-2{clip-path:url(#clip-path);}.cls-3{fill:#4e4e4e;}</style>
        <clipPath id="clip-path" transform="translate(0)">
            <rect class="cls-1" width="112.87" height="112.87"/>
        </clipPath>
    </defs>
    <g id="Слой_2" data-name="Слой 2">
        <g id="Слой_1-2" data-name="Слой 1">
            <g class="cls-2">
                <path class="cls-3"
                      d="M90,41.07C86.17,62.39,65,80.44,58.67,84.56s-12.16-1.65-14.27-6c-2.41-5-9.62-32-11.51-34.21s-7.56,2.24-7.56,2.24L22.57,43S34.09,29.22,42.86,27.49c9.29-1.83,9.28,14.27,11.51,23.2,2.17,8.64,3.61,13.58,5.5,13.58s5.51-4.81,9.45-12.2-.17-13.93-7.91-9.28c3.1-18.56,32.32-23,28.54-1.72"
                      transform="translate(0)"/>
                <path class="cls-3"
                      d="M56.44,5A51.43,51.43,0,1,1,5,56.44,51.49,51.49,0,0,1,56.44,5m0-5a56.43,56.43,0,1,0,56.44,56.44A56.44,56.44,0,0,0,56.44,0"
                      transform="translate(0)"/>
            </g>
        </g>
    </g>
</svg>