<?xml version="1.0" encoding="utf-8"?>
<!-- Generator: Adobe Illustrator 23.1.1, SVG Export Plug-In . SVG Version: 6.00 Build 0)  -->
<svg version="1.1" id="Слой_1" xmlns="http://www.w3.org/2000/svg" xmlns:xlink="http://www.w3.org/1999/xlink" x="0px" y="0px"
	 viewBox="0 0 112.9 112.9" style="enable-background:new 0 0 112.9 112.9;" xml:space="preserve">
<style type="text/css">
	.st0{clip-path:url(#SVGID_2_);}
	.st1{fill:#4E4E4E;}
</style>
<g id="Слой_1-2">
	<g>
		<defs>
			<rect id="SVGID_1_" y="0" width="112.9" height="112.9"/>
		</defs>
		<clipPath id="SVGID_2_">
			<use xlink:href="#SVGID_1_"  style="overflow:visible;"/>
		</clipPath>
		<g class="st0">
			<path class="st1" d="M56.4,5c28.4,0,51.4,23,51.4,51.4s-23,51.4-51.4,51.4C28,107.9,5,84.8,5,56.4C5,28,28,5,56.4,5 M56.4,0
				C25.3,0,0,25.3,0,56.4s25.3,56.4,56.4,56.4c31.2,0,56.4-25.3,56.4-56.4C112.9,25.3,87.6,0,56.4,0C56.4,0,56.4,0,56.4,0"/>
		</g>
	</g>
</g>
<g>
	<path class="st1" d="M80.3,31.3H32.6c-7.2,0-13,5.8-13,13v24.3c0,7.2,5.8,13,13,13h47.8c7.2,0,13-5.8,13-13V44.3
		C93.3,37.1,87.5,31.3,80.3,31.3z M48.1,66.1V46.8l16.8,9.6L48.1,66.1z"/>
</g>
</svg>
